<svg width="397" height="213" viewBox="0 0 397 213" fill="none" xmlns="http://www.w3.org/2000/svg">
<path d="M146.405 60.1779C144.135 64.2561 141.904 68.5267 139.711 72.9897C137.556 77.4527 135.44 81.8965 133.363 86.321C132.901 87.3213 132.632 88.0523 132.555 88.514C132.516 88.9757 132.593 89.2643 132.785 89.3797C133.016 89.4566 133.324 89.3989 133.709 89.2066C134.132 88.9757 134.555 88.6872 134.978 88.3409C135.979 87.5714 137.133 86.6096 138.441 85.4553C139.788 84.2626 141.115 83.0315 142.423 81.7618C143.731 80.4922 144.962 79.2418 146.117 78.0106C147.271 76.741 148.194 75.606 148.887 74.6056C149.349 73.9516 149.829 73.6053 150.33 73.5668C150.83 73.5284 151.234 73.7207 151.542 74.1439C151.849 74.5287 152.022 75.125 152.061 75.933C152.099 76.741 151.888 77.6451 151.426 78.6454C151.272 78.9532 150.849 79.6265 150.156 80.6653C149.464 81.6656 148.56 82.8391 147.444 84.1857C146.328 85.5323 145.059 86.9366 143.635 88.3986C142.25 89.8221 140.769 91.0918 139.191 92.2075C137.652 93.3233 136.075 94.189 134.459 94.8045C132.843 95.4201 131.304 95.5548 129.842 95.2085C127.803 94.7468 126.533 93.6311 126.033 91.8613C125.572 90.053 125.725 87.8792 126.495 85.3399C127.341 82.5698 128.342 79.9535 129.496 77.4912C130.689 75.0289 131.824 72.8358 132.901 70.9121C134.017 68.9884 134.978 67.3725 135.786 66.0644C136.633 64.7178 137.171 63.8137 137.402 63.352C137.595 62.9672 137.614 62.7556 137.46 62.7171C137.345 62.6787 137.152 62.7364 136.883 62.8903C136.614 63.0057 136.325 63.1788 136.017 63.4097C135.709 63.6405 135.479 63.8137 135.325 63.9291C134.401 64.5447 133.266 65.4296 131.92 66.5838C130.612 67.6995 129.207 68.9884 127.707 70.4504C126.206 71.9125 124.687 73.4899 123.148 75.1827C121.609 76.8756 120.166 78.5877 118.819 80.319C117.473 82.0504 116.28 83.7817 115.241 85.513C114.202 87.2059 113.452 88.7833 112.991 90.2454C112.991 90.3608 112.971 90.4762 112.933 90.5916C112.933 90.707 112.933 90.8225 112.933 90.9379C112.74 92.7846 112.26 94.0351 111.49 94.6891C110.721 95.3432 109.874 95.3047 108.951 94.5737C108.297 94.0351 107.758 93.2656 107.335 92.2652C106.873 91.2649 106.681 89.7837 106.758 87.8215C106.835 85.0514 107.45 82.0696 108.604 78.8763C109.759 75.6829 111.259 72.4126 113.106 69.0654C114.953 65.7181 117.05 62.3709 119.396 59.0236C121.782 55.6764 124.206 52.4638 126.668 49.3859C129.169 46.2695 131.631 43.3647 134.055 40.6715C136.479 37.9398 138.653 35.5544 140.576 33.5153C142.539 31.4762 144.174 29.8218 145.482 28.5521C146.79 27.2825 147.579 26.5515 147.848 26.3591C148.81 25.6666 149.81 25.3011 150.849 25.2626C151.888 25.2241 152.754 25.3973 153.446 25.782C154.177 26.1283 154.639 26.6477 154.831 27.3402C155.023 27.9943 154.735 28.6676 153.965 29.3601C150.349 32.6689 146.905 36.0931 143.635 39.6327C140.403 43.1338 137.383 46.6542 134.574 50.1938C131.766 53.7334 129.207 57.1961 126.899 60.5818C124.59 63.9675 122.59 67.1609 120.897 70.1619C122.397 68.2382 124.052 66.3145 125.86 64.3908C127.668 62.4671 129.534 60.755 131.458 59.2545C133.42 57.754 135.421 56.5613 137.46 55.6764C139.499 54.7915 141.538 54.426 143.577 54.5799C144.693 54.6568 145.52 54.9069 146.059 55.3301C146.598 55.7533 146.944 56.2343 147.098 56.7729C147.252 57.3115 147.232 57.8886 147.04 58.5042C146.886 59.1198 146.675 59.6777 146.405 60.1779ZM173.544 70.2773C174.583 69.3539 175.641 68.7576 176.718 68.4883C177.795 68.1805 178.719 68.0843 179.488 68.1997C180.296 68.3151 180.892 68.546 181.277 68.8922C181.662 69.2 181.7 69.4886 181.393 69.7579C181.085 70.0272 180.7 70.5081 180.238 71.2007C179.815 71.8932 179.334 72.7204 178.796 73.6823C178.295 74.6441 177.757 75.7021 177.18 76.8564C176.603 77.9721 176.026 79.1071 175.448 80.2613C174.871 81.3771 174.333 82.4736 173.832 83.5509C173.332 84.5897 172.89 85.513 172.505 86.321C172.043 87.3213 171.774 88.0523 171.697 88.514C171.659 88.9757 171.736 89.2643 171.928 89.3797C172.159 89.4566 172.467 89.3989 172.851 89.2066C173.275 88.9757 173.698 88.6872 174.121 88.3409C175.121 87.5714 176.276 86.6096 177.584 85.4553C178.93 84.2626 180.258 83.0315 181.566 81.7618C182.874 80.4922 184.105 79.2418 185.259 78.0106C186.414 76.741 187.337 75.606 188.029 74.6056C188.491 73.9516 188.972 73.6053 189.472 73.5668C189.972 73.5284 190.376 73.7207 190.684 74.1439C190.992 74.5287 191.165 75.125 191.204 75.933C191.242 76.741 191.03 77.6451 190.569 78.6454C190.453 78.9532 190.03 79.6265 189.299 80.6653C188.607 81.6656 187.702 82.8391 186.587 84.1857C185.471 85.5323 184.201 86.9366 182.778 88.3986C181.393 89.8221 179.911 91.0918 178.334 92.2075C176.795 93.3233 175.218 94.189 173.602 94.8045C171.986 95.4201 170.447 95.5548 168.985 95.2085C167.484 94.8623 166.484 94.0928 165.984 92.9001C165.484 91.6689 165.31 90.2069 165.464 88.514C164.464 89.4374 163.444 90.3223 162.406 91.1687C161.367 92.0152 160.328 92.7654 159.289 93.4195C158.25 94.0351 157.212 94.5352 156.173 94.92C155.173 95.2662 154.191 95.4394 153.23 95.4394C152.075 95.4394 151.037 95.2278 150.113 94.8045C149.19 94.3428 148.401 93.7657 147.747 93.0732C147.131 92.3422 146.651 91.515 146.304 90.5916C145.996 89.6298 145.843 88.6294 145.843 87.5906C145.881 84.4742 146.4 81.5117 147.401 78.7031C148.44 75.856 149.748 73.2206 151.325 70.7967C152.903 68.3728 154.692 66.199 156.692 64.2753C158.693 62.3516 160.694 60.7165 162.694 59.3699C164.695 58.0233 166.599 57.0037 168.408 56.3112C170.216 55.5802 171.755 55.2339 173.025 55.2724C174.525 55.3109 175.814 55.5994 176.891 56.1381C177.968 56.6382 178.853 57.2731 179.546 58.0425C180.238 58.7735 180.758 59.5815 181.104 60.4664C181.45 61.3128 181.643 62.14 181.681 62.948C181.758 63.7175 181.7 64.3908 181.508 64.9679C181.316 65.5065 181.027 65.8335 180.642 65.949C179.681 66.2568 178.95 66.2375 178.449 65.8913C177.949 65.5065 177.468 65.0256 177.007 64.4485C176.583 63.8714 176.064 63.3135 175.448 62.7749C174.833 62.2362 173.929 61.9477 172.736 61.9092C171.389 61.8707 169.985 62.217 168.523 62.948C167.061 63.6405 165.618 64.5831 164.195 65.7758C162.81 66.9685 161.463 68.3344 160.155 69.8733C158.885 71.4123 157.75 73.0282 156.75 74.7211C155.75 76.3754 154.922 78.0298 154.268 79.6842C153.614 81.3386 153.21 82.8583 153.056 84.2434C152.864 86.0132 153.018 87.2059 153.518 87.8215C154.018 88.3986 154.73 88.5525 155.653 88.2832C156.615 87.9754 157.731 87.3213 159.001 86.321C160.309 85.2822 161.675 84.051 163.098 82.6275C164.56 81.1655 166.022 79.5688 167.484 77.8375C168.985 76.0677 170.408 74.3171 171.755 72.5857C172.447 71.47 173.044 70.7005 173.544 70.2773ZM179.301 124.987C179.416 126.18 179.359 127.084 179.128 127.7C178.897 128.354 178.57 128.777 178.147 128.97C177.685 129.2 177.166 129.239 176.589 129.085C176.012 128.931 175.454 128.643 174.915 128.219C174.376 127.835 173.895 127.354 173.472 126.777C173.011 126.199 172.703 125.584 172.549 124.93C171.933 122.583 171.779 119.832 172.087 116.677C172.356 113.561 172.972 110.213 173.934 106.635C174.857 103.096 176.031 99.4214 177.454 95.6125C178.878 91.842 180.436 88.1293 182.129 84.4742C183.783 80.8192 185.495 77.3373 187.265 74.0285C189.035 70.6813 190.709 67.7188 192.286 65.141C193.902 62.5248 195.364 60.3702 196.672 58.6774C197.98 56.9845 199 55.9265 199.731 55.5032C200.885 54.8107 201.943 54.4452 202.905 54.4067C203.905 54.3683 204.675 54.5414 205.213 54.9261C205.79 55.2724 206.098 55.7918 206.137 56.4843C206.175 57.1769 205.867 57.9271 205.213 58.7351L202.27 62.7749C203.155 61.8515 204.059 60.9666 204.983 60.1201C205.944 59.2737 206.906 58.5235 207.868 57.8694C208.83 57.2153 209.773 56.6575 210.696 56.1958C211.619 55.7341 212.523 55.4263 213.408 55.2724C215.294 54.9261 216.852 54.9838 218.083 55.4455C219.314 55.8688 220.257 56.542 220.911 57.4654C221.603 58.3503 222.027 59.3891 222.18 60.5818C222.373 61.7745 222.354 62.948 222.123 64.1022C221.392 67.7188 220.353 71.0083 219.006 73.9708C217.66 76.8948 216.14 79.5111 214.447 81.8195C212.793 84.128 211.023 86.1286 209.138 87.8215C207.291 89.5144 205.463 90.9187 203.655 92.0344C201.847 93.1502 200.154 93.9966 198.577 94.5737C196.999 95.1123 195.653 95.4009 194.537 95.4394C194.114 95.4394 193.594 95.3432 192.979 95.1508C192.363 94.9584 191.786 94.6314 191.247 94.1697C190.747 93.6696 190.343 93.0347 190.035 92.2652C189.728 91.4573 189.631 90.457 189.747 89.2643C189.901 87.9177 190.208 86.7827 190.67 85.8593C191.132 84.9359 191.651 84.2049 192.228 83.6663C192.844 83.0892 193.479 82.6852 194.133 82.4544C194.825 82.2235 195.422 82.1273 195.922 82.1658C196.461 82.1658 196.884 82.2812 197.192 82.5121C197.499 82.7429 197.615 83.0315 197.538 83.3777C196.845 84.6474 196.364 85.6669 196.095 86.4364C195.826 87.2059 195.71 87.783 195.749 88.1678C195.787 88.514 195.941 88.7256 196.21 88.8026C196.518 88.8795 196.884 88.8603 197.307 88.7449C198.654 88.3986 200.039 87.7253 201.462 86.725C202.886 85.6862 204.29 84.455 205.675 83.0315C207.06 81.6079 208.368 80.0497 209.599 78.3569C210.831 76.664 211.908 74.9904 212.831 73.336C213.793 71.6431 214.563 70.0465 215.14 68.546C215.717 67.0455 216.025 65.7566 216.063 64.6793C216.063 64.2561 216.005 63.8521 215.89 63.4674C215.775 63.0826 215.544 62.7749 215.197 62.544C214.89 62.2747 214.447 62.1208 213.87 62.0823C213.331 62.0438 212.658 62.14 211.85 62.3709C210.504 62.7941 208.984 63.5251 207.291 64.5639C205.637 65.6027 203.905 66.9108 202.097 68.4883C200.327 70.0657 198.557 71.8932 196.788 73.9708C195.018 76.0099 193.363 78.2414 191.824 80.6653C189.516 85.3207 187.496 89.9183 185.765 94.4583C184.033 98.9597 182.629 103.173 181.552 107.097C180.475 111.021 179.744 114.523 179.359 117.6C178.974 120.717 178.955 123.179 179.301 124.987ZM214.751 124.987C214.866 126.18 214.808 127.084 214.577 127.7C214.347 128.354 214.02 128.777 213.596 128.97C213.135 129.2 212.615 129.239 212.038 129.085C211.461 128.931 210.903 128.643 210.365 128.219C209.826 127.835 209.345 127.354 208.922 126.777C208.46 126.199 208.152 125.584 207.998 124.93C207.383 122.583 207.229 119.832 207.537 116.677C207.806 113.561 208.422 110.213 209.383 106.635C210.307 103.096 211.48 99.4214 212.904 95.6125C214.327 91.842 215.886 88.1293 217.578 84.4742C219.233 80.8192 220.945 77.3373 222.715 74.0285C224.485 70.6813 226.158 67.7188 227.736 65.141C229.352 62.5248 230.814 60.3702 232.122 58.6774C233.43 56.9845 234.449 55.9265 235.18 55.5032C236.335 54.8107 237.393 54.4452 238.354 54.4067C239.355 54.3683 240.124 54.5414 240.663 54.9261C241.24 55.2724 241.548 55.7918 241.586 56.4843C241.625 57.1769 241.317 57.9271 240.663 58.7351L237.72 62.7749C238.605 61.8515 239.509 60.9666 240.432 60.1201C241.394 59.2737 242.356 58.5235 243.318 57.8694C244.279 57.2153 245.222 56.6575 246.145 56.1958C247.069 55.7341 247.973 55.4263 248.858 55.2724C250.743 54.9261 252.301 54.9838 253.532 55.4455C254.764 55.8688 255.706 56.542 256.36 57.4654C257.053 58.3503 257.476 59.3891 257.63 60.5818C257.822 61.7745 257.803 62.948 257.572 64.1022C256.841 67.7188 255.802 71.0083 254.456 73.9708C253.109 76.8948 251.59 79.5111 249.897 81.8195C248.242 84.128 246.472 86.1286 244.587 87.8215C242.74 89.5144 240.913 90.9187 239.105 92.0344C237.296 93.1502 235.604 93.9966 234.026 94.5737C232.449 95.1123 231.102 95.4009 229.986 95.4394C229.563 95.4394 229.044 95.3432 228.428 95.1508C227.813 94.9584 227.235 94.6314 226.697 94.1697C226.197 93.6696 225.793 93.0347 225.485 92.2652C225.177 91.4573 225.081 90.457 225.196 89.2643C225.35 87.9177 225.658 86.7827 226.12 85.8593C226.581 84.9359 227.101 84.2049 227.678 83.6663C228.293 83.0892 228.928 82.6852 229.582 82.4544C230.275 82.2235 230.871 82.1273 231.371 82.1658C231.91 82.1658 232.333 82.2812 232.641 82.5121C232.949 82.7429 233.064 83.0315 232.987 83.3777C232.295 84.6474 231.814 85.6669 231.545 86.4364C231.275 87.2059 231.16 87.783 231.198 88.1678C231.237 88.514 231.391 88.7256 231.66 88.8026C231.968 88.8795 232.333 88.8603 232.756 88.7449C234.103 88.3986 235.488 87.7253 236.912 86.725C238.335 85.6862 239.74 84.455 241.125 83.0315C242.51 81.6079 243.818 80.0497 245.049 78.3569C246.28 76.664 247.357 74.9904 248.281 73.336C249.243 71.6431 250.012 70.0465 250.589 68.546C251.166 67.0455 251.474 65.7566 251.513 64.6793C251.513 64.2561 251.455 63.8521 251.339 63.4674C251.224 63.0826 250.993 62.7749 250.647 62.544C250.339 62.2747 249.897 62.1208 249.32 62.0823C248.781 62.0438 248.108 62.14 247.3 62.3709C245.953 62.7941 244.433 63.5251 242.74 64.5639C241.086 65.6027 239.355 66.9108 237.546 68.4883C235.777 70.0657 234.007 71.8932 232.237 73.9708C230.467 76.0099 228.813 78.2414 227.274 80.6653C224.965 85.3207 222.946 89.9183 221.214 94.4583C219.483 98.9597 218.079 103.173 217.001 107.097C215.924 111.021 215.193 114.523 214.808 117.6C214.424 120.717 214.404 123.179 214.751 124.987ZM269.995 57.0037C271.034 56.0804 272.111 55.4648 273.227 55.157C274.343 54.8492 275.324 54.7338 276.17 54.8107C277.017 54.8492 277.651 55.0416 278.075 55.3878C278.536 55.6956 278.632 56.0034 278.363 56.3112C277.517 57.3115 276.574 58.5812 275.535 60.1201C274.497 61.6206 273.419 63.275 272.303 65.0833C271.226 66.8916 270.149 68.796 269.072 70.7967C267.994 72.7589 266.975 74.6826 266.013 76.5678C265.051 78.453 264.185 80.2421 263.416 81.935C262.685 83.6278 262.089 85.0898 261.627 86.321C261.05 87.86 260.954 88.7833 261.338 89.0911C261.762 89.3989 262.493 89.2643 263.531 88.6872C264.57 88.0716 265.821 87.0905 267.283 85.7439C268.783 84.3973 270.341 82.8583 271.957 81.127C273.573 79.3572 275.151 77.472 276.69 75.4713C278.267 73.4707 279.633 71.5085 280.787 69.5848C281.787 67.4302 282.749 65.3911 283.673 63.4674C284.634 61.5052 285.616 59.6392 286.616 57.8694C287.078 57.023 287.828 56.4074 288.867 56.0226C289.905 55.5994 290.925 55.3686 291.925 55.3301C292.964 55.2916 293.83 55.4071 294.522 55.6764C295.253 55.9457 295.542 56.3112 295.388 56.7729C294.311 59.1968 293.022 62.0054 291.521 65.1987C290.021 68.3536 288.424 71.6816 286.731 75.1827C285.038 78.6839 283.269 82.2427 281.422 85.8593C279.614 89.4759 277.844 92.9193 276.112 96.1896C277.959 96.4974 279.671 97.0937 281.249 97.9787C282.865 98.8636 284.038 100.133 284.769 101.788C285.115 102.596 285.308 103.365 285.346 104.096C285.385 104.827 285.288 105.404 285.058 105.827C284.827 106.251 284.461 106.462 283.961 106.462C283.499 106.501 282.922 106.212 282.23 105.597C281.153 104.635 279.806 103.865 278.19 103.288C276.613 102.711 274.843 102.326 272.881 102.134C271.996 103.711 271.149 105.154 270.341 106.462C269.572 107.809 268.86 109.04 268.206 110.156C265.898 113.849 263.435 116.946 260.819 119.447C258.241 121.986 255.702 123.968 253.201 125.391C250.662 126.853 248.276 127.777 246.045 128.162C243.775 128.546 241.813 128.431 240.158 127.815C238.504 127.238 237.254 126.161 236.407 124.583C235.522 123.045 235.214 121.044 235.484 118.582C235.599 117.543 235.965 116.312 236.58 114.888C237.196 113.464 238.081 111.964 239.235 110.387C240.389 108.848 241.832 107.289 243.563 105.712C245.295 104.173 247.372 102.749 249.796 101.441C252.182 100.133 254.894 98.9982 257.933 98.0364C261.011 97.113 264.474 96.4782 268.321 96.1319C268.937 94.9777 269.533 93.8234 270.11 92.6692C270.688 91.4765 271.265 90.3031 271.842 89.1488C270.765 90.1492 269.63 91.0726 268.437 91.919C267.283 92.7654 266.109 93.4772 264.916 94.0543C263.762 94.6314 262.589 95.0354 261.396 95.2662C260.242 95.4586 259.107 95.4394 257.991 95.2085C256.375 94.8238 255.336 93.9389 254.875 92.5538C254.413 91.1687 254.336 89.5144 254.644 87.5906C254.99 85.3207 255.663 82.7814 256.664 79.9728C257.703 77.1642 258.934 74.3556 260.357 71.5469C261.781 68.6999 263.32 66.0067 264.974 63.4674C266.667 60.8896 268.341 58.7351 269.995 57.0037ZM264.974 102.307C262.704 102.653 260.434 103.211 258.164 103.981C255.894 104.75 253.759 105.75 251.758 106.982C249.719 108.251 247.892 109.752 246.276 111.483C244.621 113.253 243.313 115.273 242.351 117.543C241.62 119.236 241.447 120.428 241.832 121.121C242.217 121.852 242.948 122.256 244.025 122.333C245.718 122.487 247.449 122.083 249.219 121.121C250.95 120.197 252.682 118.87 254.413 117.139C256.106 115.407 257.78 113.368 259.434 111.021C261.127 108.713 262.743 106.231 264.282 103.577L264.974 102.307Z" fill="white"/>
<path opacity="0.4" d="M4.99691 143.39H31.9498C44.4183 143.39 51.7351 137.94 51.7351 128.98V128.831C51.7351 121.738 47.7034 118.154 41.3572 116.064C45.9862 114.048 49.4206 110.464 49.4206 104.417V104.267C49.4206 100.684 48.1514 97.9211 46.0608 95.8306C42.9997 92.7694 38.3707 91.1269 31.8005 91.1269H4.99691V143.39ZM19.108 111.957V102.774H28.5153C32.8457 102.774 35.0856 104.417 35.0856 107.254V107.403C35.0856 110.464 32.6217 111.957 28.2167 111.957H19.108ZM19.108 131.743V122.111H30.1579C35.0109 122.111 37.2508 123.978 37.2508 126.815V126.964C37.2508 130.026 34.7123 131.743 30.3072 131.743H19.108ZM58.667 143.39H73.226V91.1269H58.667V143.39ZM82.7938 143.39H97.2782V127.562H103.475H103.624L114.152 143.39H130.876L118.407 125.173C124.903 122.41 129.159 117.109 129.159 109.12V108.971C129.159 103.819 127.591 99.7876 124.53 96.8012C121.021 93.2174 115.496 91.1269 107.507 91.1269H82.7938V143.39ZM97.2782 116.213V103.67H106.76C111.613 103.67 114.6 105.761 114.6 109.867V110.016C114.6 113.824 111.763 116.213 106.835 116.213H97.2782ZM149.224 143.39H163.708V103.819H179.387V91.1269H133.545V103.819H149.224V143.39ZM185.745 143.39H200.23V123.53H218.82V143.39H233.305V91.1269H218.82V110.688H200.23V91.1269H185.745V143.39ZM242.544 143.39H262.404C281.218 143.39 292.194 132.191 292.194 117.109V116.96C292.194 101.878 281.368 91.1269 262.702 91.1269H242.544V143.39ZM257.028 130.548V103.969H262.926C271.587 103.969 277.336 108.822 277.336 117.184V117.333C277.336 125.77 271.587 130.548 262.926 130.548H257.028ZM291.734 143.39H306.965L310.698 134.057H330.857L334.664 143.39H350.194L327.945 90.7536H313.983L291.734 143.39ZM314.954 122.783L320.852 107.926L326.676 122.783H314.954ZM362.108 143.39H376.667V123.605L396.527 91.1269H380.325L369.499 110.166L358.748 91.1269H342.248L362.108 123.829V143.39Z" fill="white"/>
<path d="M72.8941 199.719H87.3785V183.891H93.5754H93.7247L104.252 199.719H120.976L108.508 181.502C115.003 178.74 119.259 173.439 119.259 165.45V165.3C119.259 160.149 117.691 156.117 114.63 153.131C111.121 149.547 105.596 147.456 97.6071 147.456H72.8941V199.719ZM87.3785 172.543V159.999H96.8605C101.713 159.999 104.7 162.09 104.7 166.196V166.346C104.7 170.153 101.863 172.543 96.9351 172.543H87.3785ZM121.501 199.719H136.732L140.465 190.387H160.624L164.432 199.719H179.961L157.712 147.083H143.75L121.501 199.719ZM144.721 179.113L150.619 164.255L156.443 179.113H144.721ZM185.032 199.719H199.218V169.855L212.508 190.163H212.807L226.171 169.705V199.719H240.581V147.456H225.275L212.807 167.69L200.338 147.456H185.032V199.719ZM245.67 199.719H260.901L264.634 190.387H284.793L288.6 199.719H304.13L281.881 147.083H267.919L245.67 199.719ZM268.89 179.113L274.788 164.255L280.612 179.113H268.89ZM312.934 182.697H320.4L324.731 153.803V147.456H308.604V153.803L312.934 182.697ZM309.276 199.719H324.059V187.027H309.276V199.719Z" fill="white"/>
</svg>
